<?xml version="1.0" standalone="no"?>
<!DOCTYPE svg PUBLIC "-//W3C//DTD SVG 20010904//EN"
 "http://www.w3.org/TR/2001/REC-SVG-20010904/DTD/svg10.dtd">
<svg version="1.0" xmlns="http://www.w3.org/2000/svg"
 width="260.000000pt" height="260.000000pt" viewBox="0 0 260.000000 260.000000"
 preserveAspectRatio="xMidYMid meet">
<metadata>
Created by potrace 1.11, written by Peter Selinger 2001-2013
</metadata>
<g transform="translate(0.000000,260.000000) scale(0.100000,-0.100000)"
fill="#000000" stroke="none">
<path d="M1226 2223 c-1 -1 -117 -3 -259 -5 l-257 -3 -10 -30 c-8 -26 -76
-295 -85 -335 -2 -8 -8 -27 -14 -42 -6 -16 -9 -28 -6 -28 2 0 -2 -18 -10 -40
-8 -22 -12 -40 -8 -40 3 0 0 -6 -6 -13 -6 -8 -9 -16 -6 -18 2 -3 -2 -26 -10
-52 -8 -26 -15 -51 -16 -55 -1 -4 -3 -11 -4 -17 -15 -53 -98 -385 -101 -402
-2 -12 -9 -35 -15 -50 -6 -16 -10 -29 -10 -30 1 -2 1 -4 0 -5 0 -2 -2 -11 -4
-21 -6 -32 -97 -392 -102 -407 -3 -8 -7 -19 -8 -25 -1 -5 -3 -12 -4 -15 -2 -3
-4 -14 -6 -25 -2 -11 -9 -38 -15 -60 -6 -22 -13 -50 -15 -62 -3 -12 -9 -33
-15 -47 -5 -13 -7 -26 -5 -28 5 -5 1906 0 1910 4 4 4 84 302 91 338 2 14 12
50 20 80 9 30 18 62 19 70 2 8 8 30 14 48 5 17 7 32 4 32 -3 0 0 7 7 15 7 8
10 15 7 15 -3 0 -1 15 4 33 11 35 18 60 24 92 3 11 11 43 20 70 l15 50 -32 45
c-18 25 -35 47 -38 50 -7 7 -49 59 -80 100 -31 41 -146 188 -168 215 -10 11
-37 47 -62 80 -25 33 -47 62 -51 65 -3 3 -83 105 -178 228 -95 122 -178 223
-184 223 -20 2 -348 4 -351 2z m594 -499 c74 -97 150 -192 167 -212 18 -20 33
-40 33 -43 0 -4 13 -22 30 -40 16 -19 30 -37 30 -41 0 -4 -35 -62 -78 -130
-43 -68 -107 -173 -143 -235 -35 -62 -67 -112 -70 -113 -3 0 -34 41 -70 91
-35 50 -69 96 -74 102 -6 7 -38 48 -71 92 -79 106 -206 269 -214 275 -5 4 -44
51 -198 241 -17 22 -20 30 -10 34 7 2 87 25 178 51 91 25 186 55 213 65 26 10
47 17 47 15 0 -2 17 4 37 14 20 10 42 16 48 13 5 -2 71 -83 145 -179z m-682
-146 c29 -37 52 -70 52 -73 0 -3 13 -20 30 -38 16 -18 30 -37 30 -44 0 -6 4
-13 8 -15 7 -3 38 -42 177 -224 22 -28 59 -74 81 -100 123 -144 186 -226 178
-234 -7 -6 -116 -31 -364 -85 -8 -2 -62 -15 -120 -30 -58 -15 -112 -28 -120
-30 -66 -16 -380 -107 -420 -122 -8 -3 -19 -7 -25 -9 -5 -1 -63 -20 -127 -42
-65 -23 -118 -38 -118 -35 0 2 13 23 29 46 32 46 138 210 157 242 6 11 52 90
101 175 49 85 114 202 144 260 30 58 57 109 62 115 4 5 44 84 88 173 66 132
84 161 93 150 7 -7 36 -43 64 -80z"/>
</g>
</svg>
